<svg width="481px" height="118px" viewBox="0 0 481 118" version="1.1" xmlns="http://www.w3.org/2000/svg" xmlns:xlink="http://www.w3.org/1999/xlink">
    <!-- Generator: Sketch 47.1 (45422) - http://www.bohemiancoding.com/sketch -->
    <desc>Created with Sketch.</desc>
    <defs></defs>
    <g id="Page-1" stroke="none" stroke-width="1" fill="none" fill-rule="evenodd">
        <g id="logo-black" transform="translate(-5.000000, -14.000000)" fill="#FFFFFF">
            <path d="M6.63,61 C6.1966645,61 5.82833485,60.8483349 5.525,60.545 C5.22166515,60.2416652 5.07,59.8733355 5.07,59.44 L5.07,17.06 C5.07,16.5833309 5.22166515,16.2041681 5.525,15.9225 C5.82833485,15.6408319 6.1966645,15.5 6.63,15.5 L12.87,15.5 C13.3466691,15.5 13.7258319,15.6408319 14.0075,15.9225 C14.2891681,16.2041681 14.43,16.5833309 14.43,17.06 L14.43,59.44 C14.43,59.8733355 14.2891681,60.2416652 14.0075,60.545 C13.7258319,60.8483349 13.3466691,61 12.87,61 L6.63,61 Z M26.13,61 C25.6966645,61 25.3283349,60.8483349 25.025,60.545 C24.7216651,60.2416652 24.57,59.8733355 24.57,59.44 L24.57,17.125 C24.57,16.6483309 24.7108319,16.2583348 24.9925,15.955 C25.2741681,15.6516651 25.6533309,15.5 26.13,15.5 L42.965,15.5 C48.2950267,15.5 52.4658183,16.7349876 55.4775,19.205 C58.4891817,21.6750124 59.995,25.1849773 59.995,29.735 C59.995,32.8983492 59.2366743,35.5524893 57.72,37.6975 C56.2033257,39.8425107 54.0800137,41.3916619 51.35,42.345 L60.775,58.92 C60.9050006,59.1800013 60.97,59.4183322 60.97,59.635 C60.97,60.025002 60.8291681,60.3499987 60.5475,60.61 C60.2658319,60.8700013 59.9516684,61 59.605,61 L53.625,61 C52.9316632,61 52.390002,60.8375016 52,60.5125 C51.6099981,60.1874984 51.2633349,59.7650026 50.96,59.245 L42.64,43.84 L33.735,43.84 L33.735,59.44 C33.735,59.8733355 33.5833348,60.2416652 33.28,60.545 C32.9766652,60.8483349 32.586669,61 32.11,61 L26.13,61 Z M42.77,36.43 C45.370013,36.43 47.3199935,35.8558391 48.62,34.7075 C49.9200065,33.5591609 50.57,31.8800111 50.57,29.67 C50.57,27.4599889 49.9200065,25.7591726 48.62,24.5675 C47.3199935,23.3758274 45.370013,22.78 42.77,22.78 L33.735,22.78 L33.735,36.43 L42.77,36.43 Z M80.21,61 C78.9099935,61 78.065002,60.3933394 77.675,59.18 L63.765,17.45 C63.7216665,17.3199993 63.7,17.1250013 63.7,16.865 C63.7,16.4749981 63.8299987,16.1500013 64.09,15.89 C64.3500013,15.6299987 64.6749981,15.5 65.065,15.5 L70.85,15.5 C71.4133362,15.5 71.8683316,15.6516651 72.215,15.955 C72.5616684,16.2583348 72.7999994,16.5833316 72.93,16.93 L83.785,50.21 L94.705,16.93 C94.7916671,16.5833316 95.0083316,16.2583348 95.355,15.955 C95.7016684,15.6516651 96.1566639,15.5 96.72,15.5 L102.57,15.5 C102.916668,15.5 103.230832,15.6299987 103.5125,15.89 C103.794168,16.1500013 103.935,16.4749981 103.935,16.865 L103.805,17.45 L89.96,59.18 C89.5266645,60.3933394 88.681673,61 87.425,61 L80.21,61 Z M112.385,61 C111.951665,61 111.583335,60.8483349 111.28,60.545 C110.976665,60.2416652 110.825,59.8733355 110.825,59.44 L110.825,17.06 C110.825,16.5833309 110.976665,16.2041681 111.28,15.9225 C111.583335,15.6408319 111.951665,15.5 112.385,15.5 L118.625,15.5 C119.101669,15.5 119.480832,15.6408319 119.7625,15.9225 C120.044168,16.2041681 120.185,16.5833309 120.185,17.06 L120.185,59.44 C120.185,59.8733355 120.044168,60.2416652 119.7625,60.545 C119.480832,60.8483349 119.101669,61 118.625,61 L112.385,61 Z M131.885,61 C131.451664,61 131.083335,60.8483349 130.78,60.545 C130.476665,60.2416652 130.325,59.8733355 130.325,59.44 L130.325,17.125 C130.325,16.6483309 130.465832,16.2583348 130.7475,15.955 C131.029168,15.6516651 131.408331,15.5 131.885,15.5 L136.955,15.5 C137.778337,15.5 138.406665,15.8683296 138.84,16.605 L157.43,45.465 L157.43,17.125 C157.43,16.6483309 157.570832,16.2583348 157.8525,15.955 C158.134168,15.6516651 158.513331,15.5 158.99,15.5 L164.58,15.5 C165.056669,15.5 165.446665,15.6516651 165.75,15.955 C166.053335,16.2583348 166.205,16.6483309 166.205,17.125 L166.205,59.375 C166.205,59.851669 166.053335,60.2416652 165.75,60.545 C165.446665,60.8483349 165.078335,61 164.645,61 L159.51,61 C158.643329,61 157.993336,60.6316704 157.56,59.895 L139.035,31.685 L139.035,59.44 C139.035,59.8733355 138.894168,60.2416652 138.6125,60.545 C138.330832,60.8483349 137.951669,61 137.475,61 L131.885,61 Z M194.025,61.65 C188.04497,61.65 183.397517,60.111682 180.0825,57.035 C176.767483,53.958318 175.001668,49.6683608 174.785,44.165 C174.741666,42.908327 174.72,40.8933472 174.72,38.12 C174.72,35.3466528 174.741666,33.3316729 174.785,32.075 C174.958334,26.7016398 176.734983,22.4875153 180.115,19.4325 C183.495017,16.3774847 188.131637,14.85 194.025,14.85 C198.011687,14.85 201.445819,15.5324932 204.3275,16.8975 C207.209181,18.2625068 209.386659,19.9524899 210.86,21.9675 C212.333341,23.9825101 213.113333,25.9649902 213.2,27.915 C213.2,28.305002 213.070001,28.6299987 212.81,28.89 C212.549999,29.1500013 212.203336,29.28 211.77,29.28 L204.945,29.28 C204.511665,29.28 204.186668,29.1933342 203.97,29.02 C203.753332,28.8466658 203.558334,28.5650019 203.385,28.175 C202.77833,26.5716587 201.716674,25.2066723 200.2,24.08 C198.683326,22.9533277 196.625013,22.39 194.025,22.39 C190.991652,22.39 188.619175,23.2024919 186.9075,24.8275 C185.195825,26.4525081 184.296667,28.9766496 184.21,32.4 C184.166666,33.656673 184.145,35.5633206 184.145,38.12 C184.145,40.6333459 184.166666,42.5399935 184.21,43.84 C184.296667,47.3500176 185.206658,49.9391583 186.94,51.6075 C188.673342,53.2758417 191.056652,54.11 194.09,54.11 C197.166682,54.11 199.636657,53.2866749 201.5,51.64 C203.363343,49.9933251 204.295,47.5233498 204.295,44.23 L204.295,42.215 L196.365,42.215 C195.931664,42.215 195.563335,42.0633349 195.26,41.76 C194.956665,41.4566651 194.805,41.0883355 194.805,40.655 L194.805,37.08 C194.805,36.6466645 194.956665,36.2783349 195.26,35.975 C195.563335,35.6716651 195.931664,35.52 196.365,35.52 L211.965,35.52 C212.441669,35.52 212.831665,35.6716651 213.135,35.975 C213.438335,36.2783349 213.59,36.6466645 213.59,37.08 L213.59,43.97 C213.59,47.5666846 212.788341,50.6974867 211.185,53.3625 C209.581659,56.0275133 207.306681,58.0749929 204.36,59.505 C201.413319,60.9350072 197.968353,61.65 194.025,61.65 Z M232.96,61 C232.526664,61 232.158335,60.8483349 231.855,60.545 C231.551665,60.2416652 231.4,59.8733355 231.4,59.44 L231.4,23.625 L219.375,23.625 C218.941665,23.625 218.573335,23.4733349 218.27,23.17 C217.966665,22.8666652 217.815,22.476669 217.815,22 L217.815,17.125 C217.815,16.6483309 217.955832,16.2583348 218.2375,15.955 C218.519168,15.6516651 218.898331,15.5 219.375,15.5 L252.59,15.5 C253.066669,15.5 253.456665,15.6516651 253.76,15.955 C254.063335,16.2583348 254.215,16.6483309 254.215,17.125 L254.215,22 C254.215,22.476669 254.063335,22.8666652 253.76,23.17 C253.456665,23.4733349 253.066669,23.625 252.59,23.625 L240.63,23.625 L240.63,59.44 C240.63,59.8733355 240.489168,60.2416652 240.2075,60.545 C239.925832,60.8483349 239.546669,61 239.07,61 L232.96,61 Z M277.485,61.65 C271.548304,61.65 266.93335,60.155015 263.64,57.165 C260.34665,54.174985 258.613334,49.7333628 258.44,43.84 C258.396666,42.5833271 258.375,40.7416788 258.375,38.315 C258.375,35.8449877 258.396666,33.9816729 258.44,32.725 C258.613334,26.9616378 260.389983,22.541682 263.77,19.465 C267.150017,16.388318 271.721638,14.85 277.485,14.85 C283.205029,14.85 287.765816,16.388318 291.1675,19.465 C294.569184,22.541682 296.356666,26.9616378 296.53,32.725 C296.616667,35.2383459 296.66,37.1016606 296.66,38.315 C296.66,39.4850059 296.616667,41.3266541 296.53,43.84 C296.356666,49.7333628 294.612517,54.174985 291.2975,57.165 C287.982483,60.155015 283.378363,61.65 277.485,61.65 Z M277.485,54.11 C280.388348,54.11 282.684992,53.243342 284.375,51.51 C286.065008,49.776658 286.974999,47.1116847 287.105,43.515 C287.191667,40.914987 287.235,39.1600045 287.235,38.25 C287.235,37.2533283 287.191667,35.4983459 287.105,32.985 C286.974999,29.4316489 286.043342,26.7775088 284.31,25.0225 C282.576658,23.2674912 280.301681,22.39 277.485,22.39 C274.624986,22.39 272.328342,23.2674912 270.595,25.0225 C268.861658,26.7775088 267.951667,29.4316489 267.865,32.985 C267.821666,34.2416729 267.8,35.9966554 267.8,38.25 C267.8,40.460011 267.821666,42.2149935 267.865,43.515 C267.951667,47.0683511 268.850825,49.7224912 270.5625,51.4775 C272.274175,53.2325088 274.581652,54.11 277.485,54.11 Z M306.67,61 C306.236665,61 305.868335,60.8483349 305.565,60.545 C305.261665,60.2416652 305.11,59.8733355 305.11,59.44 L305.11,17.125 C305.11,16.6483309 305.250832,16.2583348 305.5325,15.955 C305.814168,15.6516651 306.193331,15.5 306.67,15.5 L311.74,15.5 C312.563337,15.5 313.191665,15.8683296 313.625,16.605 L332.215,45.465 L332.215,17.125 C332.215,16.6483309 332.355832,16.2583348 332.6375,15.955 C332.919168,15.6516651 333.298331,15.5 333.775,15.5 L339.365,15.5 C339.841669,15.5 340.231665,15.6516651 340.535,15.955 C340.838335,16.2583348 340.99,16.6483309 340.99,17.125 L340.99,59.375 C340.99,59.851669 340.838335,60.2416652 340.535,60.545 C340.231665,60.8483349 339.863336,61 339.43,61 L334.295,61 C333.428329,61 332.778336,60.6316704 332.345,59.895 L313.82,31.685 L313.82,59.44 C313.82,59.8733355 313.679168,60.2416652 313.3975,60.545 C313.115832,60.8483349 312.736669,61 312.26,61 L306.67,61 Z M377.455,61 C376.154994,61 375.310002,60.3933394 374.92,59.18 L361.01,17.45 C360.966666,17.3199993 360.945,17.1250013 360.945,16.865 C360.945,16.4749981 361.074999,16.1500013 361.335,15.89 C361.595001,15.6299987 361.919998,15.5 362.31,15.5 L368.095,15.5 C368.658336,15.5 369.113332,15.6516651 369.46,15.955 C369.806668,16.2583348 370.044999,16.5833316 370.175,16.93 L381.03,50.21 L391.95,16.93 C392.036667,16.5833316 392.253332,16.2583348 392.6,15.955 C392.946668,15.6516651 393.401664,15.5 393.965,15.5 L399.815,15.5 C400.161668,15.5 400.475832,15.6299987 400.7575,15.89 C401.039168,16.1500013 401.18,16.4749981 401.18,16.865 L401.05,17.45 L387.205,59.18 C386.771665,60.3933394 385.926673,61 384.67,61 L377.455,61 Z M409.63,61 C409.196665,61 408.828335,60.8483349 408.525,60.545 C408.221665,60.2416652 408.07,59.8733355 408.07,59.44 L408.07,17.125 C408.07,16.6483309 408.210832,16.2583348 408.4925,15.955 C408.774168,15.6516651 409.153331,15.5 409.63,15.5 L438.295,15.5 C438.771669,15.5 439.161665,15.6516651 439.465,15.955 C439.768335,16.2583348 439.92,16.6483309 439.92,17.125 L439.92,21.48 C439.92,21.9566691 439.768335,22.3358319 439.465,22.6175 C439.161665,22.8991681 438.771669,23.04 438.295,23.04 L416.975,23.04 L416.975,34.415 L436.865,34.415 C437.341669,34.415 437.731665,34.5666651 438.035,34.87 C438.338335,35.1733349 438.49,35.563331 438.49,36.04 L438.49,40.135 C438.49,40.6116691 438.338335,40.9908319 438.035,41.2725 C437.731665,41.5541681 437.341669,41.695 436.865,41.695 L416.975,41.695 L416.975,53.46 L438.815,53.46 C439.291669,53.46 439.681665,53.6008319 439.985,53.8825 C440.288335,54.1641681 440.44,54.5433309 440.44,55.02 L440.44,59.44 C440.44,59.9166691 440.288335,60.2958319 439.985,60.5775 C439.681665,60.8591681 439.291669,61 438.815,61 L409.63,61 Z M445.965,61 C445.618332,61 445.304168,60.8700013 445.0225,60.61 C444.740832,60.3499987 444.6,60.025002 444.6,59.635 C444.6,59.4616658 444.686666,59.2016684 444.86,58.855 L459.355,37.795 L445.77,17.645 C445.596666,17.3849987 445.51,17.1250013 445.51,16.865 C445.51,16.4749981 445.650832,16.1500013 445.9325,15.89 C446.214168,15.6299987 446.528332,15.5 446.875,15.5 L453.7,15.5 C454.480004,15.5 455.151664,15.9116626 455.715,16.735 L465.205,30.645 L474.76,16.735 C475.236669,15.9116626 475.908329,15.5 476.775,15.5 L483.21,15.5 C483.556668,15.5 483.870832,15.6299987 484.1525,15.89 C484.434168,16.1500013 484.575,16.4749981 484.575,16.865 C484.575,17.0383342 484.488334,17.2983316 484.315,17.645 L470.73,37.795 L485.29,58.855 C485.420001,59.1150013 485.485,59.3749987 485.485,59.635 C485.485,60.025002 485.355001,60.3499987 485.095,60.61 C484.834999,60.8700013 484.510002,61 484.12,61 L477.165,61 C476.384996,61 475.713336,60.6100039 475.15,59.83 L464.88,45.205 L454.74,59.83 C454.176664,60.6100039 453.505004,61 452.725,61 L445.965,61 Z" id="IRVINGTON-VEX"></path>
            <path d="M6.63,127 C6.1966645,127 5.82833485,126.848335 5.525,126.545 C5.22166515,126.241665 5.07,125.873335 5.07,125.44 L5.07,83.06 C5.07,82.5833309 5.22166515,82.2041681 5.525,81.9225 C5.82833485,81.6408319 6.1966645,81.5 6.63,81.5 L12.87,81.5 C13.346669,81.5 13.7258319,81.6408319 14.0075,81.9225 C14.2891681,82.2041681 14.43,82.5833309 14.43,83.06 L14.43,125.44 C14.43,125.873335 14.2891681,126.241665 14.0075,126.545 C13.7258319,126.848335 13.346669,127 12.87,127 L6.63,127 Z M55.755,131.225 C55.1916639,131.225 54.7258352,131.084168 54.3575,130.8025 C53.9891648,130.520832 53.6533349,130.163336 53.35,129.73 L50.945,126.48 C48.9949902,127.260004 46.6983465,127.65 44.055,127.65 C38.1616372,127.65 33.5575166,126.155015 30.2425,123.165 C26.9274834,120.174985 25.1833342,115.733363 25.01,109.84 C24.9666664,108.583327 24.945,106.741679 24.945,104.315 C24.945,101.844988 24.9666664,99.9816729 25.01,98.725 C25.1833342,92.9616378 26.9708163,88.541682 30.3725,85.465 C33.7741837,82.388318 38.3349714,80.85 44.055,80.85 C49.8183622,80.85 54.3899831,82.388318 57.77,85.465 C61.1500169,88.541682 62.9266658,92.9616378 63.1,98.725 C63.1866671,101.238346 63.23,103.101661 63.23,104.315 C63.23,105.485006 63.1866671,107.326654 63.1,109.84 C62.9266658,115.560029 61.3666814,119.849986 58.42,122.71 L62.97,129.21 C63.1000006,129.470001 63.165,129.686666 63.165,129.86 L63.165,129.99 C63.165,130.336668 63.0350013,130.629165 62.775,130.8675 C62.5149987,131.105835 62.2116684,131.225 61.865,131.225 L55.755,131.225 Z M44.055,120.11 C46.9583479,120.11 49.2658248,119.232509 50.9775,117.4775 C52.6891752,115.722491 53.5883329,113.068351 53.675,109.515 C53.7616671,106.914987 53.805,105.160005 53.805,104.25 C53.805,103.253328 53.7616671,101.498346 53.675,98.985 C53.5883329,95.4316489 52.678342,92.7775088 50.945,91.0225 C49.211658,89.2674912 46.9150143,88.39 44.055,88.39 C41.1949857,88.39 38.9091752,89.2674912 37.1975,91.0225 C35.4858248,92.7775088 34.5650007,95.4316489 34.435,98.985 C34.3916665,100.241673 34.37,101.996655 34.37,104.25 C34.37,106.460011 34.3916665,108.214993 34.435,109.515 C34.5650007,113.111685 35.4749915,115.776658 37.165,117.51 C38.8550084,119.243342 41.1516522,120.11 44.055,120.11 Z M108.115,127.65 C102.13497,127.65 97.509183,126.122515 94.2375,123.0675 C90.965817,120.012485 89.2216677,115.668362 89.005,110.035 C88.9616664,108.864994 88.94,106.958347 88.94,104.315 C88.94,101.62832 88.9616664,99.6783394 89.005,98.465 C89.2216677,92.9183056 90.9766502,88.5958488 94.27,85.4975 C97.5633498,82.3991512 102.178304,80.85 108.115,80.85 C111.971686,80.85 115.329986,81.5108267 118.19,82.8325 C121.050014,84.1541733 123.270825,85.9633218 124.8525,88.26 C126.434175,90.5566781 127.268333,93.1349857 127.355,95.995 L127.355,96.125 C127.355,96.4716684 127.214168,96.7641655 126.9325,97.0025 C126.650832,97.2408345 126.336668,97.36 125.99,97.36 L119.685,97.36 C119.164997,97.36 118.775001,97.2408345 118.515,97.0025 C118.254999,96.7641655 118.038334,96.3416697 117.865,95.735 C117.214997,93.0483199 116.088341,91.1525055 114.485,90.0475 C112.881659,88.9424945 110.758347,88.39 108.115,88.39 C101.918302,88.39 98.6900013,91.856632 98.43,98.79 C98.3866664,99.9600059 98.365,101.758321 98.365,104.185 C98.365,106.611679 98.3866664,108.453327 98.43,109.71 C98.6900013,116.643368 101.918302,120.11 108.115,120.11 C110.715013,120.11 112.827492,119.557506 114.4525,118.4525 C116.077508,117.347494 117.214997,115.45168 117.865,112.765 C118.038334,112.15833 118.254999,111.735835 118.515,111.4975 C118.775001,111.259165 119.164997,111.14 119.685,111.14 L125.99,111.14 C126.380002,111.14 126.715832,111.269999 126.9975,111.53 C127.279168,111.790001 127.398334,112.114998 127.355,112.505 C127.268333,115.365014 126.434175,117.943322 124.8525,120.24 C123.270825,122.536678 121.050014,124.345827 118.19,125.6675 C115.329986,126.989173 111.971686,127.65 108.115,127.65 Z M138.65,127 C138.216665,127 137.848335,126.848335 137.545,126.545 C137.241665,126.241665 137.09,125.873335 137.09,125.44 L137.09,83.125 C137.09,82.648331 137.230832,82.2583348 137.5125,81.955 C137.794168,81.6516651 138.173331,81.5 138.65,81.5 L144.63,81.5 C145.106669,81.5 145.496665,81.6516651 145.8,81.955 C146.103335,82.2583348 146.255,82.648331 146.255,83.125 L146.255,99.83 L165.235,99.83 L165.235,83.125 C165.235,82.648331 165.386665,82.2583348 165.69,81.955 C165.993335,81.6516651 166.361665,81.5 166.795,81.5 L172.84,81.5 C173.316669,81.5 173.695832,81.6516651 173.9775,81.955 C174.259168,82.2583348 174.4,82.648331 174.4,83.125 L174.4,125.44 C174.4,125.873335 174.259168,126.241665 173.9775,126.545 C173.695832,126.848335 173.316669,127 172.84,127 L166.795,127 C166.361665,127 165.993335,126.848335 165.69,126.545 C165.386665,126.241665 165.235,125.873335 165.235,125.44 L165.235,108.085 L146.255,108.085 L146.255,125.44 C146.255,125.873335 146.103335,126.241665 145.8,126.545 C145.496665,126.848335 145.106669,127 144.63,127 L138.65,127 Z M183.745,127 C183.354998,127 183.030001,126.870001 182.77,126.61 C182.509999,126.349999 182.38,126.025002 182.38,125.635 L182.51,125.05 L198.11,83.125 C198.543336,82.0416613 199.323328,81.5 200.45,81.5 L207.6,81.5 C208.726672,81.5 209.506665,82.0416613 209.94,83.125 L225.54,125.05 L225.67,125.635 C225.67,126.025002 225.529168,126.349999 225.2475,126.61 C224.965832,126.870001 224.651668,127 224.305,127 L218.52,127 C217.609995,127 216.981668,126.588337 216.635,125.765 L213.645,117.9 L194.405,117.9 L191.415,125.765 C191.068332,126.588337 190.440005,127 189.53,127 L183.745,127 Z M196.68,110.36 L211.37,110.36 L204.025,90.34 L196.68,110.36 Z M235.21,127 C234.776665,127 234.408335,126.848335 234.105,126.545 C233.801665,126.241665 233.65,125.873335 233.65,125.44 L233.65,83.06 C233.65,82.5833309 233.801665,82.2041681 234.105,81.9225 C234.408335,81.6408319 234.776665,81.5 235.21,81.5 L241.32,81.5 C241.796669,81.5 242.175832,81.6408319 242.4575,81.9225 C242.739168,82.2041681 242.88,82.5833309 242.88,83.06 L242.88,119.2 L263.485,119.2 C263.961669,119.2 264.351665,119.351665 264.655,119.655 C264.958335,119.958335 265.11,120.326664 265.11,120.76 L265.11,125.44 C265.11,125.873335 264.958335,126.241665 264.655,126.545 C264.351665,126.848335 263.961669,127 263.485,127 L235.21,127 Z M274.975,127 C274.541665,127 274.173335,126.848335 273.87,126.545 C273.566665,126.241665 273.415,125.873335 273.415,125.44 L273.415,83.06 C273.415,82.5833309 273.566665,82.2041681 273.87,81.9225 C274.173335,81.6408319 274.541665,81.5 274.975,81.5 L281.085,81.5 C281.561669,81.5 281.940832,81.6408319 282.2225,81.9225 C282.504168,82.2041681 282.645,82.5833309 282.645,83.06 L282.645,119.2 L303.25,119.2 C303.726669,119.2 304.116665,119.351665 304.42,119.655 C304.723335,119.958335 304.875,120.326664 304.875,120.76 L304.875,125.44 C304.875,125.873335 304.723335,126.241665 304.42,126.545 C304.116665,126.848335 303.726669,127 303.25,127 L274.975,127 Z M314.74,127 C314.306665,127 313.938335,126.848335 313.635,126.545 C313.331665,126.241665 313.18,125.873335 313.18,125.44 L313.18,83.125 C313.18,82.648331 313.320832,82.2583348 313.6025,81.955 C313.884168,81.6516651 314.263331,81.5 314.74,81.5 L343.405,81.5 C343.881669,81.5 344.271665,81.6516651 344.575,81.955 C344.878335,82.2583348 345.03,82.648331 345.03,83.125 L345.03,87.48 C345.03,87.9566691 344.878335,88.3358319 344.575,88.6175 C344.271665,88.8991681 343.881669,89.04 343.405,89.04 L322.085,89.04 L322.085,100.415 L341.975,100.415 C342.451669,100.415 342.841665,100.566665 343.145,100.87 C343.448335,101.173335 343.6,101.563331 343.6,102.04 L343.6,106.135 C343.6,106.611669 343.448335,106.990832 343.145,107.2725 C342.841665,107.554168 342.451669,107.695 341.975,107.695 L322.085,107.695 L322.085,119.46 L343.925,119.46 C344.401669,119.46 344.791665,119.600832 345.095,119.8825 C345.398335,120.164168 345.55,120.543331 345.55,121.02 L345.55,125.44 C345.55,125.916669 345.398335,126.295832 345.095,126.5775 C344.791665,126.859168 344.401669,127 343.925,127 L314.74,127 Z M357.235,127 C356.801665,127 356.433335,126.848335 356.13,126.545 C355.826665,126.241665 355.675,125.873335 355.675,125.44 L355.675,83.125 C355.675,82.648331 355.815832,82.2583348 356.0975,81.955 C356.379168,81.6516651 356.758331,81.5 357.235,81.5 L362.305,81.5 C363.128337,81.5 363.756664,81.8683296 364.19,82.605 L382.78,111.465 L382.78,83.125 C382.78,82.648331 382.920832,82.2583348 383.2025,81.955 C383.484168,81.6516651 383.863331,81.5 384.34,81.5 L389.93,81.5 C390.406669,81.5 390.796665,81.6516651 391.1,81.955 C391.403335,82.2583348 391.555,82.648331 391.555,83.125 L391.555,125.375 C391.555,125.851669 391.403335,126.241665 391.1,126.545 C390.796665,126.848335 390.428336,127 389.995,127 L384.86,127 C383.993329,127 383.343335,126.63167 382.91,125.895 L364.385,97.685 L364.385,125.44 C364.385,125.873335 364.244168,126.241665 363.9625,126.545 C363.680832,126.848335 363.301669,127 362.825,127 L357.235,127 Z M421.375,127.65 C415.39497,127.65 410.747517,126.111682 407.4325,123.035 C404.117483,119.958318 402.351668,115.668361 402.135,110.165 C402.091666,108.908327 402.07,106.893347 402.07,104.12 C402.07,101.346653 402.091666,99.3316729 402.135,98.075 C402.308334,92.7016398 404.084983,88.4875153 407.465,85.4325 C410.845017,82.3774847 415.481637,80.85 421.375,80.85 C425.361687,80.85 428.795819,81.5324932 431.6775,82.8975 C434.559181,84.2625068 436.736659,85.9524899 438.21,87.9675 C439.683341,89.9825101 440.463333,91.9649902 440.55,93.915 C440.55,94.305002 440.420001,94.6299987 440.16,94.89 C439.899999,95.1500013 439.553336,95.28 439.12,95.28 L432.295,95.28 C431.861665,95.28 431.536668,95.1933342 431.32,95.02 C431.103332,94.8466658 430.908334,94.5650019 430.735,94.175 C430.12833,92.5716587 429.066674,91.2066723 427.55,90.08 C426.033326,88.9533277 423.975013,88.39 421.375,88.39 C418.341652,88.39 415.969175,89.2024919 414.2575,90.8275 C412.545825,92.4525081 411.646667,94.9766496 411.56,98.4 C411.516666,99.656673 411.495,101.563321 411.495,104.12 C411.495,106.633346 411.516666,108.539994 411.56,109.84 C411.646667,113.350018 412.556658,115.939158 414.29,117.6075 C416.023342,119.275842 418.406652,120.11 421.44,120.11 C424.516682,120.11 426.986657,119.286675 428.85,117.64 C430.713343,115.993325 431.645,113.52335 431.645,110.23 L431.645,108.215 L423.715,108.215 C423.281665,108.215 422.913335,108.063335 422.61,107.76 C422.306665,107.456665 422.155,107.088335 422.155,106.655 L422.155,103.08 C422.155,102.646664 422.306665,102.278335 422.61,101.975 C422.913335,101.671665 423.281665,101.52 423.715,101.52 L439.315,101.52 C439.791669,101.52 440.181665,101.671665 440.485,101.975 C440.788335,102.278335 440.94,102.646664 440.94,103.08 L440.94,109.97 C440.94,113.566685 440.138341,116.697487 438.535,119.3625 C436.931659,122.027513 434.656681,124.074993 431.71,125.505 C428.763319,126.935007 425.318353,127.65 421.375,127.65 Z M452.755,127 C452.321664,127 451.953335,126.848335 451.65,126.545 C451.346665,126.241665 451.195,125.873335 451.195,125.44 L451.195,83.125 C451.195,82.648331 451.335832,82.2583348 451.6175,81.955 C451.899168,81.6516651 452.278331,81.5 452.755,81.5 L481.42,81.5 C481.896669,81.5 482.286665,81.6516651 482.59,81.955 C482.893335,82.2583348 483.045,82.648331 483.045,83.125 L483.045,87.48 C483.045,87.9566691 482.893335,88.3358319 482.59,88.6175 C482.286665,88.8991681 481.896669,89.04 481.42,89.04 L460.1,89.04 L460.1,100.415 L479.99,100.415 C480.466669,100.415 480.856665,100.566665 481.16,100.87 C481.463335,101.173335 481.615,101.563331 481.615,102.04 L481.615,106.135 C481.615,106.611669 481.463335,106.990832 481.16,107.2725 C480.856665,107.554168 480.466669,107.695 479.99,107.695 L460.1,107.695 L460.1,119.46 L481.94,119.46 C482.416669,119.46 482.806665,119.600832 483.11,119.8825 C483.413335,120.164168 483.565,120.543331 483.565,121.02 L483.565,125.44 C483.565,125.916669 483.413335,126.295832 483.11,126.5775 C482.806665,126.859168 482.416669,127 481.94,127 L452.755,127 Z" id="IQ-CHALLENGE"></path>
        </g>
    </g>
</svg>